<svg width="16" height="16" viewBox="0 0 14 14" fill="none" xmlns="http://www.w3.org/2000/svg">
<g id="Google Logo">
<g id="logo googleg 48dp">
<path id="Shape" fill-rule="evenodd" clip-rule="evenodd" d="M12.9269 7.28044C12.9269 6.85327 12.8885 6.44253 12.8173 6.04823H7.14368V8.37848H10.3858C10.2461 9.1315 9.82169 9.76951 9.18368 10.1967V11.7082H11.1306C12.2697 10.6594 12.9269 9.11507 12.9269 7.28044Z" fill="#4285F4"/>
<path id="Shape_2" fill-rule="evenodd" clip-rule="evenodd" d="M7.14354 13.1676C8.77006 13.1676 10.1337 12.6281 11.1304 11.7081L9.18354 10.1966C8.6441 10.558 7.95406 10.7716 7.14354 10.7716C5.57452 10.7716 4.24647 9.71191 3.77275 8.28802H1.76013V9.84882C2.75138 11.8176 4.78864 13.1676 7.14354 13.1676Z" fill="#34A853"/>
<path id="Shape_3" fill-rule="evenodd" clip-rule="evenodd" d="M3.77275 8.28819C3.65227 7.92674 3.58381 7.54064 3.58381 7.1436C3.58381 6.74655 3.65227 6.36046 3.77275 5.99901V4.4382H1.76014C1.35214 5.25146 1.11938 6.17152 1.11938 7.1436C1.11938 8.11568 1.35214 9.03573 1.76014 9.84899L3.77275 8.28819Z" fill="#FBBC05"/>
<path id="Shape_4" fill-rule="evenodd" clip-rule="evenodd" d="M7.14354 3.51536C8.02799 3.51536 8.82209 3.81931 9.44641 4.41625L11.1742 2.68841C10.131 1.71633 8.76732 1.11939 7.14354 1.11939C4.78864 1.11939 2.75138 2.46935 1.76013 4.43816L3.77275 5.99896C4.24647 4.57507 5.57452 3.51536 7.14354 3.51536Z" fill="#EA4335"/>
</g>
</g>
</svg>
