<svg width="164" height="210" viewBox="0 0 164 210" fill="none" xmlns="http://www.w3.org/2000/svg">
<g id="Mask group">
<mask id="mask0_41_224" style="mask-type:alpha" maskUnits="userSpaceOnUse" x="0" y="0" width="164" height="210">
<rect id="Rectangle 5" width="164" height="210" rx="11" fill="#1E1E1E"/>
</mask>
<g mask="url(#mask0_41_224)">
<g id="lpB">
<path id="Vector" d="M248.987 40H111.267C107.387 40 104.241 43.1454 104.241 47.0254V129.137C104.241 133.017 107.387 136.163 111.267 136.163H248.987C252.867 136.163 256.012 133.017 256.012 129.137V47.0254C256.012 43.1454 252.867 40 248.987 40Z" stroke="#1A1A1A" stroke-width="4.22432" stroke-miterlimit="10"/>
<path id="Vector_2" d="M244.303 186.455H84.5777C80.2659 186.455 77.5895 181.512 79.7826 177.609L103.089 139.099C104.056 137.24 105.803 136.125 107.698 136.125H250.66C254.191 136.125 256.756 139.991 255.789 143.894L249.656 182.218C248.987 184.746 246.794 186.455 244.303 186.455Z" stroke="#1A1A1A" stroke-width="4.65982" stroke-miterlimit="10"/>
<path id="Vector_3" d="M235.94 166.048L101.045 165.9C98.2568 165.9 96.5469 163.075 97.9966 160.844L107.55 146.05C108.182 145.047 109.371 144.452 110.598 144.452H240.549C242.928 144.452 244.638 146.571 243.969 148.727L239.36 163.669C238.914 165.082 237.501 166.086 235.94 166.086V166.048Z" fill="#1A1A1A"/>
<path id="Vector_4" d="M174.012 180.88L147.546 181.066C143.978 181.066 142.9 178.278 144.684 176.642L149.814 169.245C150.669 168.502 152.23 167.833 153.902 167.833H179.811C183.305 167.795 183.231 168.688 182.859 170.806L178.547 179.281C177.729 180.099 175.796 180.917 174.012 180.917V180.88Z" fill="#1A1A1A"/>
</g>
</g>
</g>
</svg>
