<svg width="543" height="63" viewBox="0 0 362 42" fill="none" xmlns="http://www.w3.org/2000/svg">
<g clip-path="url(#clip0_34_73)">
<path d="M31.3121 40.7212L36.3526 12.082H46.5406C48.6178 12.082 50.298 12.4333 51.6116 13.1512C52.9252 13.8538 53.8722 14.8008 54.4526 15.9769C55.033 17.153 55.2927 18.4513 55.2163 19.8718C55.1552 21.7506 54.6359 23.4154 53.6584 24.836C52.6808 26.2565 51.3061 27.3868 49.5649 28.1657C47.8236 28.96 45.8074 29.3571 43.501 29.3571H38.2161L36.2152 40.7364H31.3121V40.7212ZM38.8882 25.7066H43.9592C45.8074 25.7066 47.289 25.2178 48.404 24.2555C49.5038 23.2933 50.0995 21.9644 50.1911 20.2995C50.2522 19.0928 49.9162 18.1153 49.183 17.3363C48.4651 16.5573 47.2737 16.1755 45.6088 16.1755H40.5683L38.8882 25.7066ZM46.4947 40.7212L42.7373 28.0741H47.8541L51.9018 40.7212H46.4947Z" fill="white"/>
<path d="M28.0132 27.3867C27.051 25.2483 26.5164 22.8961 26.5164 20.4369V19.383C26.5164 9.66859 34.7492 1.74126 44.8302 1.74126H45.9299C56.0109 1.74126 64.2437 9.66859 64.2437 19.383V20.4369C64.2437 27.8755 59.3865 34.2907 52.5742 36.8567" stroke="white" stroke-width="3.46725" stroke-miterlimit="10"/>
<path d="M0.824951 16.7559H23.1559" stroke="white" stroke-width="2.0773" stroke-miterlimit="10"/>
<path d="M2.5813 24.3319H5.84999H23.1557" stroke="white" stroke-width="2.0773" stroke-miterlimit="10"/>
<path d="M0 31.9232H30.4721" stroke="white" stroke-width="2.0773" stroke-miterlimit="10"/>
<path d="M29.8612 16.7559H33.7256" stroke="white" stroke-width="2.0773" stroke-miterlimit="10"/>
<path d="M75.1494 41.2099C73.4081 41.2099 72.0029 40.828 70.949 40.0796C69.8951 39.3311 69.1924 38.2772 68.8411 36.9025C68.4898 35.5431 68.4745 33.9393 68.7953 32.1217L70.9184 20.0856H75.8367L73.7442 31.6635C73.4692 33.3742 73.5914 34.7183 74.1107 35.6501C74.6301 36.5818 75.684 37.0553 77.2572 37.0553C78.2348 37.0553 79.1665 36.8262 80.0219 36.3832C80.8772 35.9403 81.6104 35.2835 82.2366 34.4128C82.8476 33.5575 83.26 32.5036 83.4891 31.2358L85.4901 20.0703H90.3931L86.7884 40.6906H82.4505L82.5727 37.3302C81.7479 38.5063 80.7092 39.4381 79.4415 40.1407C78.1737 40.8433 76.7379 41.1793 75.1188 41.1793L75.1494 41.2099Z" fill="white"/>
<path d="M92.3326 40.7211L95.9374 20.1009H100.275L100.077 23.4612C100.917 22.2851 101.986 21.3534 103.254 20.666C104.521 19.9634 105.957 19.6274 107.576 19.6274C109.318 19.6274 110.708 19.9939 111.746 20.7271C112.785 21.4603 113.487 22.5142 113.869 23.8583C114.251 25.2025 114.282 26.8215 113.946 28.7003L111.777 40.7364H106.904L108.951 29.189C109.257 27.4783 109.119 26.1342 108.539 25.1719C107.958 24.2249 106.904 23.7361 105.346 23.7361C104.384 23.7361 103.483 23.9652 102.627 24.4388C101.772 24.897 101.039 25.569 100.459 26.4244C99.8781 27.2798 99.4352 28.3337 99.1755 29.5556L97.2509 40.7211H92.3326Z" fill="white"/>
<path d="M125.982 40.721C124.394 40.721 123.141 40.4614 122.194 39.9573C121.247 39.4533 120.621 38.6896 120.285 37.6662C119.949 36.6428 119.934 35.3598 120.209 33.8018L121.889 24.179H118.498L119.231 20.0855H122.622L124.134 14.6479H128.518L127.54 20.0855H133.192L132.459 24.179H126.807L125.127 33.8018C124.928 34.8405 125.051 35.5584 125.448 35.9555C125.845 36.3526 126.532 36.5512 127.494 36.5512H130.274L129.541 40.721H125.982Z" fill="white"/>
<path d="M134.322 40.7211L137.957 20.1009H142.875L139.24 40.7211H134.322ZM141.531 16.9086C140.599 16.9086 139.866 16.6336 139.301 16.0685C138.736 15.5033 138.446 14.816 138.415 14.0064C138.385 13.1664 138.66 12.4638 139.255 11.8986C139.836 11.3335 140.599 11.0585 141.531 11.0585C142.463 11.0585 143.166 11.3335 143.746 11.8986C144.326 12.4638 144.617 13.1664 144.647 14.0064C144.678 14.8313 144.388 15.5186 143.761 16.0685C143.135 16.6183 142.402 16.9086 141.531 16.9086Z" fill="white"/>
<path d="M145.044 40.7211L148.649 20.1009H152.941L152.865 23.0946C153.659 22.0101 154.621 21.1548 155.751 20.5438C156.882 19.9328 158.134 19.6274 159.494 19.6274C160.502 19.6274 161.403 19.7648 162.212 20.055C163.022 20.3453 163.694 20.7577 164.259 21.3228C164.824 21.888 165.237 22.5753 165.512 23.3848C166.443 22.1782 167.543 21.2617 168.841 20.6049C170.14 19.9481 171.514 19.6274 172.95 19.6274C174.615 19.6274 175.99 19.9787 177.09 20.666C178.174 21.3686 178.953 22.3767 179.396 23.7361C179.839 25.0803 179.885 26.7452 179.503 28.7155L177.38 40.7516H172.507L174.554 29.1738C174.86 27.4325 174.707 26.0884 174.126 25.1566C173.546 24.2249 172.584 23.7667 171.24 23.7667C170.445 23.7667 169.682 23.9805 168.933 24.4082C168.185 24.8359 167.528 25.4316 166.963 26.2258C166.398 27.0201 165.985 27.9977 165.71 29.1738L163.664 40.7516H158.745L160.792 29.1738C161.113 27.4325 160.991 26.0884 160.41 25.1566C159.83 24.2249 158.867 23.7667 157.523 23.7667C156.683 23.7667 155.858 24.0111 155.064 24.4846C154.27 24.9581 153.598 25.6454 153.033 26.5313C152.467 27.4172 152.07 28.5017 151.826 29.7847L149.947 40.7516H145.029L145.044 40.7211Z" fill="white"/>
<path d="M192.226 41.2098C190.393 41.2098 188.82 40.828 187.507 40.0643C186.178 39.3005 185.185 38.2161 184.498 36.8108C183.81 35.4056 183.52 33.7865 183.596 31.9689C183.673 30.2429 184.039 28.6391 184.666 27.1422C185.292 25.6454 186.162 24.3318 187.277 23.2015C188.392 22.0712 189.691 21.1853 191.172 20.559C192.639 19.9328 194.273 19.612 196.045 19.612C197.817 19.612 199.466 19.9939 200.749 20.7576C202.032 21.5213 202.995 22.56 203.636 23.8736C204.278 25.1871 204.553 26.6535 204.476 28.2878C204.446 28.8377 204.369 29.3876 204.247 29.968C204.125 30.5484 204.003 31.083 203.896 31.6023H187.125L187.705 28.4558H199.619C199.726 27.4172 199.619 26.5465 199.268 25.8439C198.932 25.1413 198.428 24.5914 197.756 24.2096C197.084 23.8277 196.305 23.6292 195.403 23.6292C194.395 23.6292 193.418 23.8583 192.501 24.3318C191.57 24.79 190.775 25.4774 190.103 26.3938C189.431 27.3103 188.973 28.4558 188.729 29.8458L188.53 31.0372C188.286 32.2438 188.316 33.2978 188.606 34.2295C188.912 35.1612 189.431 35.8791 190.164 36.3984C190.897 36.9178 191.829 37.1774 192.944 37.1774C194.059 37.1774 195.083 36.933 195.907 36.4443C196.732 35.9555 197.404 35.314 197.893 34.5197H202.888C202.262 35.7722 201.421 36.9178 200.398 37.9411C199.375 38.9645 198.153 39.774 196.778 40.3545C195.403 40.9349 193.891 41.2404 192.257 41.2404L192.226 41.2098Z" fill="white"/>
<path d="M226.441 40.721C224.852 40.721 223.6 40.4614 222.653 39.9573C221.706 39.4533 221.079 38.6896 220.743 37.6662C220.423 36.6428 220.392 35.3598 220.667 33.8018L222.347 24.179H218.956L219.689 20.0855H223.08L224.592 14.6479H228.976L227.999 20.0855H233.65L232.917 24.179H227.265L225.585 33.8018C225.387 34.8405 225.509 35.5584 225.906 35.9555C226.318 36.3526 226.991 36.5512 227.953 36.5512H230.733L230 40.721H226.441Z" fill="white"/>
<path d="M234.627 40.7211L238.232 20.1009H242.616L242.417 23.782C243.074 22.9114 243.822 22.1782 244.662 21.5672C245.503 20.9715 246.465 20.4828 247.534 20.1315C248.603 19.7802 249.734 19.5969 250.925 19.5969L249.978 24.7596H248.267C247.473 24.7596 246.694 24.8665 245.915 25.065C245.136 25.2636 244.449 25.5844 243.822 26.0273C243.211 26.4703 242.692 27.0507 242.264 27.8144C241.837 28.5628 241.516 29.464 241.302 30.5332L239.546 40.7211H234.643H234.627Z" fill="white"/>
<path d="M257.661 41.2098C256.134 41.2098 254.881 40.9502 253.919 40.4308C252.957 39.9115 252.239 39.2242 251.796 38.3383C251.353 37.4676 251.154 36.5054 251.2 35.4667C251.231 34.0767 251.658 32.8548 252.483 31.8009C253.308 30.747 254.484 29.9374 255.981 29.3723C257.478 28.8071 259.219 28.5169 261.174 28.5169H266.367C266.551 27.4325 266.566 26.516 266.413 25.7828C266.245 25.0497 265.879 24.4998 265.314 24.1485C264.733 23.7972 263.969 23.6139 262.977 23.6139C261.862 23.6139 260.869 23.8736 259.983 24.3929C259.112 24.9122 258.471 25.6912 258.058 26.7298H253.232C253.644 25.2635 254.362 23.9957 255.385 22.9266C256.409 21.8574 257.631 21.0478 259.051 20.4674C260.472 19.887 261.999 19.612 263.633 19.612C265.573 19.612 267.162 19.9481 268.414 20.6354C269.667 21.3228 270.553 22.2698 271.057 23.507C271.561 24.7289 271.668 26.2258 271.362 27.9671L269.147 40.7363H264.764L264.962 37.4982C264.58 38.0175 264.137 38.5063 263.633 38.9645C263.129 39.4227 262.579 39.8351 261.999 40.1712C261.419 40.5072 260.762 40.7669 260.029 40.9502C259.311 41.1334 258.501 41.2098 257.631 41.2098H257.661ZM259.418 37.3302C260.212 37.3302 260.945 37.1927 261.632 36.9025C262.32 36.6123 262.946 36.2151 263.511 35.6958C264.092 35.1765 264.55 34.5808 264.916 33.9087C265.283 33.2367 265.512 32.5188 265.589 31.7551L265.634 31.6787H261.128C260.166 31.6787 259.341 31.8162 258.654 32.0911C257.951 32.366 257.432 32.7326 257.081 33.1908C256.729 33.6491 256.516 34.2295 256.47 34.9016C256.409 35.6653 256.653 36.261 257.188 36.6886C257.722 37.1163 258.455 37.3302 259.418 37.3302Z" fill="white"/>
<path d="M284.345 41.2098C282.543 41.2098 280.97 40.828 279.595 40.049C278.236 39.27 277.212 38.1855 276.525 36.7803C275.838 35.3751 275.547 33.756 275.624 31.9384C275.7 30.1971 276.067 28.5627 276.723 27.0506C277.38 25.5384 278.281 24.2401 279.427 23.1404C280.573 22.0559 281.886 21.1853 283.383 20.559C284.865 19.9328 286.453 19.612 288.149 19.612C290.76 19.612 292.838 20.3147 294.365 21.7046C295.893 23.0946 296.672 24.9886 296.702 27.3866H291.539C291.509 26.2105 291.112 25.3246 290.333 24.7289C289.554 24.1332 288.592 23.8277 287.446 23.8277C286.3 23.8277 285.14 24.1485 284.131 24.8053C283.123 25.4621 282.314 26.3633 281.703 27.5088C281.092 28.6544 280.756 29.9985 280.695 31.5259C280.634 32.366 280.695 33.145 280.893 33.8324C281.077 34.535 281.382 35.1001 281.779 35.5736C282.176 36.0319 282.65 36.3984 283.184 36.6581C283.734 36.9178 284.361 37.04 285.063 37.04C285.857 37.04 286.606 36.9025 287.309 36.6123C288.011 36.3221 288.653 35.9097 289.218 35.3903C289.783 34.8557 290.195 34.2142 290.47 33.4505H295.633C295.053 34.9779 294.212 36.3373 293.097 37.5287C291.982 38.7201 290.669 39.6366 289.187 40.2628C287.706 40.9043 286.087 41.2251 284.33 41.2251L284.345 41.2098Z" fill="white"/>
<path d="M299.116 40.7211L304.355 11.2571H309.258L304.019 40.7211H299.116ZM312.954 40.7211L305.378 29.2655L315.154 20.1009H321.248L309.304 30.7776L309.716 27.8297L318.804 40.7211H312.954Z" fill="white"/>
<path d="M330.794 41.2098C328.961 41.2098 327.388 40.828 326.074 40.0643C324.745 39.3005 323.753 38.2161 323.065 36.8108C322.378 35.4056 322.088 33.7865 322.164 31.9689C322.24 30.2429 322.607 28.6391 323.233 27.1422C323.859 25.6454 324.73 24.3318 325.845 23.2015C326.96 22.0712 328.258 21.1853 329.725 20.559C331.191 19.9328 332.825 19.612 334.597 19.612C336.369 19.612 338.019 19.9939 339.302 20.7576C340.585 21.5213 341.547 22.56 342.189 23.8736C342.83 25.1871 343.105 26.6535 343.029 28.2878C342.998 28.8377 342.922 29.3876 342.799 29.968C342.677 30.5484 342.555 31.083 342.448 31.6023H325.662L326.242 28.4558H338.156C338.263 27.4172 338.156 26.5465 337.805 25.8439C337.469 25.1413 336.965 24.5914 336.293 24.2096C335.621 23.8277 334.842 23.6292 333.94 23.6292C332.932 23.6292 331.97 23.8583 331.038 24.3318C330.107 24.8053 329.312 25.4774 328.64 26.3938C327.968 27.3103 327.51 28.4558 327.266 29.8458L327.067 31.0372C326.823 32.2438 326.853 33.2978 327.143 34.2295C327.449 35.1612 327.968 35.8791 328.701 36.3984C329.435 36.9178 330.366 37.1774 331.481 37.1774C332.596 37.1774 333.62 36.933 334.445 36.4443C335.269 35.9555 335.941 35.314 336.43 34.5197H341.425C340.799 35.7722 339.958 36.9178 338.935 37.9411C337.912 38.9645 336.69 39.774 335.315 40.3545C333.94 40.9349 332.428 41.2404 330.794 41.2404V41.2098Z" fill="white"/>
<path d="M345.534 40.7211L349.139 20.1009H353.522L353.324 23.782C353.98 22.9114 354.729 22.1782 355.569 21.5672C356.409 20.9715 357.371 20.4828 358.441 20.1315C359.51 19.7802 360.64 19.5969 361.831 19.5969L360.884 24.7596H359.174C358.379 24.7596 357.6 24.8665 356.821 25.065C356.042 25.2636 355.355 25.5844 354.729 26.0273C354.118 26.4703 353.599 27.0507 353.171 27.8144C352.743 28.5781 352.422 29.464 352.209 30.5332L350.452 40.7211H345.534Z" fill="white"/>
</g>
<defs>
<clipPath id="clip0_34_73">
<rect width="361.816" height="41.2099" fill="white"/>
</clipPath>
</defs>
</svg>
