<svg width="66" height="38" viewBox="0 0 66 38" fill="none" xmlns="http://www.w3.org/2000/svg">
<g id="logo">
<g id="Layer 1">
<path id="Vector" d="M27.9509 37.2685L32.4872 12.0831H41.6646C43.5294 12.0831 45.059 12.3974 46.2323 13.0155C47.4162 13.6441 48.2647 14.4613 48.7886 15.4984C49.3124 16.5356 49.5429 17.667 49.4695 18.9137C49.4172 20.569 48.9562 22.0253 48.0657 23.2824C47.1752 24.5396 45.9495 25.5139 44.378 26.2158C42.8065 26.9073 40.9836 27.2635 38.9198 27.2635H34.1634L32.3615 37.2685H27.9404H27.9509ZM34.7711 24.0682H39.3388C41.0046 24.0682 42.3456 23.6386 43.3408 22.79C44.3361 21.9414 44.8704 20.7786 44.9437 19.3223C44.9961 18.2642 44.6923 17.3947 44.0427 16.7137C43.3932 16.0327 42.3141 15.687 40.816 15.687H36.2797L34.7711 24.0682ZM41.6227 37.2685L38.2283 26.153H42.8379L46.4838 37.2685H41.6227Z" fill="white"/>
<path id="Vector_2" d="M24.9862 25.5453C24.1167 23.67 23.6348 21.6062 23.6348 19.4271V18.5052C23.6348 9.96684 31.0521 3 40.1352 3H41.12C50.203 3 57.6204 9.96684 57.6204 18.5052V19.4271C57.6204 25.9749 53.2517 31.6112 47.1125 33.8636" stroke="white" stroke-width="3.4396" stroke-miterlimit="10"/>
<path id="Vector_3" d="M2 16.1898H20.607" stroke="white" stroke-width="2.05908" stroke-miterlimit="10"/>
<path id="Vector_4" d="M5.36157 22.7406L7.76595 22.7406L20.4895 22.7406" stroke="white" stroke-width="2.05908" stroke-miterlimit="10"/>
<path id="Vector_5" d="M2 29.4641L27.2132 29.4641" stroke="white" stroke-width="2.05908" stroke-miterlimit="10"/>
<path id="Vector_6" d="M26.6519 16.1898H30.13" stroke="white" stroke-width="2.05908" stroke-miterlimit="10"/>
</g>
</g>
</svg>
